
<global>
ampeg_release=3.50
</global>

<group>
group_label=RR1
seq_length=3
seq_position=1

<region>
hivel=31
key=G6
lovel=0
offset=14027
sample=Marimba_Sustain_PP_G6_RR1.opus
volume=24
</region>

<region>
hivel=31
key=G5
lovel=0
offset=16627
sample=Marimba_Sustain_PP_G5_RR1.opus
volume=24
</region>

<region>
hivel=31
key=G4
lovel=0
offset=13959
sample=Marimba_Sustain_PP_G4_RR1.opus
volume=24
</region>

<region>
hivel=31
key=G3
lovel=0
offset=15057
sample=Marimba_Sustain_PP_G3_RR1.opus
volume=24
</region>

<region>
hivel=31
key=G2
lovel=0
offset=15191
sample=Marimba_Sustain_PP_G2_RR1.opus
volume=24
</region>

<region>
hivel=31
key=G#6
lovel=0
offset=17885
sample=Marimba_Sustain_PP_G#6_RR1.opus
volume=24
</region>

<region>
hivel=31
key=G#5
lovel=0
offset=16103
sample=Marimba_Sustain_PP_G#5_RR1.opus
volume=24
</region>

<region>
hivel=31
key=G#4
lovel=0
offset=13716
sample=Marimba_Sustain_PP_G#4_RR1.opus
volume=24
</region>

<region>
hivel=31
key=G#3
lovel=0
offset=14649
sample=Marimba_Sustain_PP_G#3_RR1.opus
volume=24
</region>

<region>
hivel=31
key=G#2
lovel=0
offset=9648
sample=Marimba_Sustain_PP_G#2_RR1.opus
volume=24
</region>

<region>
hivel=31
key=F6
lovel=0
offset=14973
sample=Marimba_Sustain_PP_F6_RR1.opus
volume=24
</region>

<region>
hivel=31
key=F5
lovel=0
offset=13504
sample=Marimba_Sustain_PP_F5_RR1.opus
volume=24
</region>

<region>
hivel=31
key=F4
lovel=0
offset=15209
sample=Marimba_Sustain_PP_F4_RR1.opus
volume=24
</region>

<region>
hivel=31
key=F3
lovel=0
offset=14369
sample=Marimba_Sustain_PP_F3_RR1.opus
volume=24
</region>

<region>
hivel=31
key=F2
lovel=0
offset=5457
sample=Marimba_Sustain_PP_F2_RR1.opus
volume=24
</region>

<region>
hivel=31
key=F#6
lovel=0
offset=16723
sample=Marimba_Sustain_PP_F#6_RR1.opus
volume=24
</region>

<region>
hivel=31
key=F#5
lovel=0
offset=16814
sample=Marimba_Sustain_PP_F#5_RR1.opus
volume=24
</region>

<region>
hivel=31
key=F#4
lovel=0
offset=13833
sample=Marimba_Sustain_PP_F#4_RR1.opus
volume=24
</region>

<region>
hivel=31
key=F#3
lovel=0
offset=14605
sample=Marimba_Sustain_PP_F#3_RR1.opus
volume=24
</region>

<region>
hivel=31
key=F#2
lovel=0
offset=17482
sample=Marimba_Sustain_PP_F#2_RR1.opus
volume=24
</region>

<region>
hivel=31
key=E6
lovel=0
offset=14426
sample=Marimba_Sustain_PP_E6_RR1.opus
volume=24
</region>

<region>
hivel=31
key=E5
lovel=0
offset=13566
sample=Marimba_Sustain_PP_E5_RR1.opus
volume=24
</region>

<region>
hivel=31
key=E4
lovel=0
offset=13256
sample=Marimba_Sustain_PP_E4_RR1.opus
volume=24
</region>

<region>
hivel=31
key=E3
lovel=0
offset=14042
sample=Marimba_Sustain_PP_E3_RR1.opus
volume=24
</region>

<region>
hivel=31
key=E2
lovel=0
offset=16232
sample=Marimba_Sustain_PP_E2_RR1.opus
volume=24
</region>

<region>
hivel=31
key=D6
lovel=0
offset=15798
sample=Marimba_Sustain_PP_D6_RR1.opus
volume=24
</region>

<region>
hivel=31
key=D5
lovel=0
offset=13866
sample=Marimba_Sustain_PP_D5_RR1.opus
volume=24
</region>

<region>
hivel=31
key=D4
lovel=0
offset=13815
sample=Marimba_Sustain_PP_D4_RR1.opus
volume=24
</region>

<region>
hivel=31
key=D3
lovel=0
offset=15793
sample=Marimba_Sustain_PP_D3_RR1.opus
volume=24
</region>

<region>
hivel=31
key=D2
lovel=0
offset=14312
sample=Marimba_Sustain_PP_D2_RR1.opus
volume=24
</region>

<region>
hivel=31
key=D#6
lovel=0
offset=13534
sample=Marimba_Sustain_PP_D#6_RR1.opus
volume=24
</region>

<region>
hivel=31
key=D#5
lovel=0
offset=13577
sample=Marimba_Sustain_PP_D#5_RR1.opus
volume=24
</region>

<region>
hivel=31
key=D#4
lovel=0
offset=13963
sample=Marimba_Sustain_PP_D#4_RR1.opus
volume=24
</region>

<region>
hivel=31
key=D#3
lovel=0
offset=12814
sample=Marimba_Sustain_PP_D#3_RR1.opus
volume=24
</region>

<region>
hivel=31
key=D#2
lovel=0
offset=18451
sample=Marimba_Sustain_PP_D#2_RR1.opus
volume=24
</region>

<region>
hivel=31
key=C7
lovel=0
offset=14314
sample=Marimba_Sustain_PP_C7_RR1.opus
volume=24
</region>

<region>
hivel=31
key=C6
lovel=0
offset=13550
sample=Marimba_Sustain_PP_C6_RR1.opus
volume=24
</region>

<region>
hivel=31
key=C5
lovel=0
offset=15222
sample=Marimba_Sustain_PP_C5_RR1.opus
volume=24
</region>

<region>
hivel=31
key=C4
lovel=0
offset=16669
sample=Marimba_Sustain_PP_C4_RR1.opus
volume=20
</region>

<region>
hivel=31
key=C3
lovel=0
offset=16780
sample=Marimba_Sustain_PP_C3_RR1.opus
volume=24
</region>

<region>
hivel=31
key=C2
lovel=0
offset=14532
sample=Marimba_Sustain_PP_C2_RR1.opus
volume=24
</region>

<region>
hivel=31
key=C#6
lovel=0
offset=16825
sample=Marimba_Sustain_PP_C#6_RR1.opus
volume=24
</region>

<region>
hivel=31
key=C#5
lovel=0
offset=13768
sample=Marimba_Sustain_PP_C#5_RR1.opus
volume=24
</region>

<region>
hivel=31
key=C#4
lovel=0
offset=15781
sample=Marimba_Sustain_PP_C#4_RR1.opus
volume=24
</region>

<region>
hivel=31
key=C#3
lovel=0
offset=13634
sample=Marimba_Sustain_PP_C#3_RR1.opus
volume=24
</region>

<region>
hivel=31
key=C#2
lovel=0
offset=15254
sample=Marimba_Sustain_PP_C#2_RR1.opus
volume=24
</region>

<region>
hivel=31
key=B6
lovel=0
offset=15428
sample=Marimba_Sustain_PP_B6_RR1.opus
volume=24
</region>

<region>
hivel=31
key=B5
lovel=0
offset=13807
sample=Marimba_Sustain_PP_B5_RR1.opus
volume=24
</region>

<region>
hivel=31
key=B4
lovel=0
offset=11591
sample=Marimba_Sustain_PP_B4_RR1.opus
volume=24
</region>

<region>
hivel=31
key=B3
lovel=0
offset=14925
sample=Marimba_Sustain_PP_B3_RR1.opus
volume=24
</region>

<region>
hivel=31
key=B2
lovel=0
offset=16283
sample=Marimba_Sustain_PP_B2_RR1.opus
volume=24
</region>

<region>
hivel=31
key=A6
lovel=0
offset=16828
sample=Marimba_Sustain_PP_A6_RR1.opus
volume=24
</region>

<region>
hivel=31
key=A5
lovel=0
offset=13481
sample=Marimba_Sustain_PP_A5_RR1.opus
volume=24
</region>

<region>
hivel=31
key=A4
lovel=0
offset=13823
sample=Marimba_Sustain_PP_A4_RR1.opus
volume=24
</region>

<region>
hivel=31
key=A3
lovel=0
offset=13716
sample=Marimba_Sustain_PP_A3_RR1.opus
volume=24
</region>

<region>
hivel=31
key=A2
lovel=0
offset=15489
sample=Marimba_Sustain_PP_A2_RR1.opus
volume=24
</region>

<region>
hivel=31
key=A#6
lovel=0
offset=17234
sample=Marimba_Sustain_PP_A#6_RR1.opus
volume=24
</region>

<region>
hivel=31
key=A#5
lovel=0
offset=13545
sample=Marimba_Sustain_PP_A#5_RR1.opus
volume=24
</region>

<region>
hivel=31
key=A#4
lovel=0
offset=11362
sample=Marimba_Sustain_PP_A#4_RR1.opus
volume=24
</region>

<region>
hivel=31
key=A#3
lovel=0
offset=14344
sample=Marimba_Sustain_PP_A#3_RR1.opus
volume=24
</region>

<region>
hivel=31
key=A#2
lovel=0
offset=20266
sample=Marimba_Sustain_PP_A#2_RR1.opus
volume=24
</region>

<region>
hivel=63
key=G6
lovel=32
offset=12976
sample=Marimba_Sustain_MP_G6_RR1.opus
</region>

<region>
hivel=63
key=G5
lovel=32
offset=12960
sample=Marimba_Sustain_MP_G5_RR1.opus
</region>

<region>
hivel=63
key=G4
lovel=32
offset=9936
sample=Marimba_Sustain_MP_G4_RR1.opus
</region>

<region>
hivel=63
key=G3
lovel=32
offset=12986
sample=Marimba_Sustain_MP_G3_RR1.opus
</region>

<region>
hivel=63
key=G2
lovel=32
offset=12987
sample=Marimba_Sustain_MP_G2_RR1.opus
</region>

<region>
hivel=63
key=G#6
lovel=32
offset=12931
sample=Marimba_Sustain_MP_G#6_RR1.opus
</region>

<region>
hivel=63
key=G#5
lovel=32
offset=12992
sample=Marimba_Sustain_MP_G#5_RR1.opus
</region>

<region>
hivel=63
key=G#4
lovel=32
offset=13007
sample=Marimba_Sustain_MP_G#4_RR1.opus
</region>

<region>
hivel=63
key=G#3
lovel=32
offset=6577
sample=Marimba_Sustain_MP_G#3_RR1.opus
</region>

<region>
hivel=63
key=G#2
lovel=32
offset=12973
sample=Marimba_Sustain_MP_G#2_RR1.opus
</region>

<region>
hivel=63
key=F6
lovel=32
offset=12983
sample=Marimba_Sustain_MP_F6_RR1.opus
</region>

<region>
hivel=63
key=F5
lovel=32
offset=12980
sample=Marimba_Sustain_MP_F5_RR1.opus
</region>

<region>
hivel=63
key=F4
lovel=32
offset=7731
sample=Marimba_Sustain_MP_F4_RR1.opus
</region>

<region>
hivel=63
key=F3
lovel=32
offset=3219
sample=Marimba_Sustain_MP_F3_RR1.opus
</region>

<region>
hivel=63
key=F2
lovel=32
offset=12994
sample=Marimba_Sustain_MP_F2_RR1.opus
</region>

<region>
hivel=63
key=F#6
lovel=32
offset=12980
sample=Marimba_Sustain_MP_F#6_RR1.opus
</region>

<region>
hivel=63
key=F#5
lovel=32
offset=12967
sample=Marimba_Sustain_MP_F#5_RR1.opus
</region>

<region>
hivel=63
key=F#4
lovel=32
offset=12971
sample=Marimba_Sustain_MP_F#4_RR1.opus
</region>

<region>
hivel=63
key=F#3
lovel=32
offset=12928
sample=Marimba_Sustain_MP_F#3_RR1.opus
</region>

<region>
hivel=63
key=F#2
lovel=32
offset=13032
sample=Marimba_Sustain_MP_F#2_RR1.opus
</region>

<region>
hivel=63
key=E6
lovel=32
offset=13002
sample=Marimba_Sustain_MP_E6_RR1.opus
</region>

<region>
hivel=63
key=E5
lovel=32
offset=12987
sample=Marimba_Sustain_MP_E5_RR1.opus
</region>

<region>
hivel=63
key=E4
lovel=32
offset=13008
sample=Marimba_Sustain_MP_E4_RR1.opus
</region>

<region>
hivel=63
key=E3
lovel=32
offset=12992
sample=Marimba_Sustain_MP_E3_RR1.opus
</region>

<region>
hivel=63
key=E2
lovel=32
offset=12980
sample=Marimba_Sustain_MP_E2_RR1.opus
</region>

<region>
hivel=63
key=D6
lovel=32
offset=12992
sample=Marimba_Sustain_MP_D6_RR1.opus
</region>

<region>
hivel=63
key=D5
lovel=32
offset=13013
sample=Marimba_Sustain_MP_D5_RR1.opus
</region>

<region>
hivel=63
key=D4
lovel=32
offset=13000
sample=Marimba_Sustain_MP_D4_RR1.opus
</region>

<region>
hivel=63
key=D3
lovel=32
sample=Marimba_Sustain_MP_D3_RR1.opus
</region>

<region>
hivel=63
key=D2
lovel=32
offset=13001
sample=Marimba_Sustain_MP_D2_RR1.opus
</region>

<region>
hivel=63
key=D#6
lovel=32
offset=13011
sample=Marimba_Sustain_MP_D#6_RR1.opus
</region>

<region>
hivel=63
key=D#5
lovel=32
offset=12998
sample=Marimba_Sustain_MP_D#5_RR1.opus
</region>

<region>
hivel=63
key=D#4
lovel=32
offset=12988
sample=Marimba_Sustain_MP_D#4_RR1.opus
</region>

<region>
hivel=63
key=D#3
lovel=32
offset=10510
sample=Marimba_Sustain_MP_D#3_RR1.opus
</region>

<region>
hivel=63
key=D#2
lovel=32
offset=12987
sample=Marimba_Sustain_MP_D#2_RR1.opus
</region>

<region>
hivel=63
key=C7
lovel=32
offset=12973
sample=Marimba_Sustain_MP_C7_RR1.opus
</region>

<region>
hivel=63
key=C6
lovel=32
offset=13008
sample=Marimba_Sustain_MP_C6_RR1.opus
</region>

<region>
hivel=63
key=C5
lovel=32
offset=12974
sample=Marimba_Sustain_MP_C5_RR1.opus
</region>

<region>
hivel=63
key=C4
lovel=32
offset=9888
sample=Marimba_Sustain_MP_C4_RR1.opus
</region>

<region>
hivel=63
key=C3
lovel=32
offset=6665
sample=Marimba_Sustain_MP_C3_RR1.opus
</region>

<region>
hivel=63
key=C2
lovel=32
offset=12248
sample=Marimba_Sustain_MP_C2_RR1.opus
</region>

<region>
hivel=63
key=C#6
lovel=32
offset=12956
sample=Marimba_Sustain_MP_C#6_RR1.opus
</region>

<region>
hivel=63
key=C#5
lovel=32
offset=12973
sample=Marimba_Sustain_MP_C#5_RR1.opus
</region>

<region>
hivel=63
key=C#4
lovel=32
sample=Marimba_Sustain_MP_C#4_RR1.opus
</region>

<region>
hivel=63
key=C#3
lovel=32
offset=13005
sample=Marimba_Sustain_MP_C#3_RR1.opus
</region>

<region>
hivel=63
key=C#2
lovel=32
offset=12999
sample=Marimba_Sustain_MP_C#2_RR1.opus
</region>

<region>
hivel=63
key=B6
lovel=32
sample=Marimba_Sustain_MP_B6_RR1.opus
</region>

<region>
hivel=63
key=B5
lovel=32
offset=12960
sample=Marimba_Sustain_MP_B5_RR1.opus
</region>

<region>
hivel=63
key=B4
lovel=32
offset=13009
sample=Marimba_Sustain_MP_B4_RR1.opus
</region>

<region>
hivel=63
key=B3
lovel=32
offset=13003
sample=Marimba_Sustain_MP_B3_RR1.opus
</region>

<region>
hivel=63
key=B2
lovel=32
offset=12993
sample=Marimba_Sustain_MP_B2_RR1.opus
</region>

<region>
hivel=63
key=A6
lovel=32
offset=13040
sample=Marimba_Sustain_MP_A6_RR1.opus
</region>

<region>
hivel=63
key=A5
lovel=32
offset=13016
sample=Marimba_Sustain_MP_A5_RR1.opus
</region>

<region>
hivel=63
key=A4
lovel=32
offset=5775
sample=Marimba_Sustain_MP_A4_RR1.opus
</region>

<region>
hivel=63
key=A3
lovel=32
offset=13002
sample=Marimba_Sustain_MP_A3_RR1.opus
</region>

<region>
hivel=63
key=A2
lovel=32
offset=12994
sample=Marimba_Sustain_MP_A2_RR1.opus
</region>

<region>
hivel=63
key=A#6
lovel=32
offset=12880
sample=Marimba_Sustain_MP_A#6_RR1.opus
</region>

<region>
hivel=63
key=A#5
lovel=32
offset=13002
sample=Marimba_Sustain_MP_A#5_RR1.opus
</region>

<region>
hivel=63
key=A#4
lovel=32
offset=12988
sample=Marimba_Sustain_MP_A#4_RR1.opus
</region>

<region>
hivel=63
key=A#3
lovel=32
offset=6358
sample=Marimba_Sustain_MP_A#3_RR1.opus
</region>

<region>
hivel=63
key=A#2
lovel=32
offset=13009
sample=Marimba_Sustain_MP_A#2_RR1.opus
</region>

<region>
hivel=95
key=G6
lovel=64
offset=12953
sample=Marimba_Sustain_MF_G6_RR1.opus
</region>

<region>
hivel=95
key=G5
lovel=64
offset=11016
sample=Marimba_Sustain_MF_G5_RR1.opus
</region>

<region>
hivel=95
key=G4
lovel=64
sample=Marimba_Sustain_MF_G4_RR1.opus
</region>

<region>
hivel=95
key=G3
lovel=64
sample=Marimba_Sustain_MF_G3_RR1.opus
</region>

<region>
hivel=95
key=G2
lovel=64
offset=13028
sample=Marimba_Sustain_MF_G2_RR1.opus
</region>

<region>
hivel=95
key=G#6
lovel=64
offset=12973
sample=Marimba_Sustain_MF_G#6_RR1.opus
</region>

<region>
hivel=95
key=G#5
lovel=64
sample=Marimba_Sustain_MF_G#5_RR1.opus
</region>

<region>
hivel=95
key=G#4
lovel=64
sample=Marimba_Sustain_MF_G#4_RR1.opus
</region>

<region>
hivel=95
key=G#3
lovel=64
sample=Marimba_Sustain_MF_G#3_RR1.opus
</region>

<region>
hivel=95
key=G#2
lovel=64
offset=12992
sample=Marimba_Sustain_MF_G#2_RR1.opus
</region>

<region>
hivel=95
key=F6
lovel=64
offset=12970
sample=Marimba_Sustain_MF_F6_RR1.opus
</region>

<region>
hivel=95
key=F5
lovel=64
offset=11565
sample=Marimba_Sustain_MF_F5_RR1.opus
</region>

<region>
hivel=95
key=F4
lovel=64
sample=Marimba_Sustain_MF_F4_RR1.opus
</region>

<region>
hivel=95
key=F3
lovel=64
offset=13021
sample=Marimba_Sustain_MF_F3_RR1.opus
</region>

<region>
hivel=95
key=F2
lovel=64
offset=13007
sample=Marimba_Sustain_MF_F2_RR1.opus
</region>

<region>
hivel=95
key=F#6
lovel=64
offset=13004
sample=Marimba_Sustain_MF_F#6_RR1.opus
</region>

<region>
hivel=95
key=F#5
lovel=64
sample=Marimba_Sustain_MF_F#5_RR1.opus
</region>

<region>
hivel=95
key=F#4
lovel=64
offset=8907
sample=Marimba_Sustain_MF_F#4_RR1.opus
</region>

<region>
hivel=95
key=F#3
lovel=64
offset=6528
sample=Marimba_Sustain_MF_F#3_RR1.opus
</region>

<region>
hivel=95
key=F#2
lovel=64
offset=12984
sample=Marimba_Sustain_MF_F#2_RR1.opus
</region>

<region>
hivel=95
key=E6
lovel=64
offset=12987
sample=Marimba_Sustain_MF_E6_RR1.opus
</region>

<region>
hivel=95
key=E5
lovel=64
offset=12978
sample=Marimba_Sustain_MF_E5_RR1.opus
</region>

<region>
hivel=95
key=E4
lovel=64
offset=12975
sample=Marimba_Sustain_MF_E4_RR1.opus
</region>

<region>
hivel=95
key=E3
lovel=64
offset=10700
sample=Marimba_Sustain_MF_E3_RR1.opus
</region>

<region>
hivel=95
key=E2
lovel=64
offset=12995
sample=Marimba_Sustain_MF_E2_RR1.opus
</region>

<region>
hivel=95
key=D6
lovel=64
offset=12972
sample=Marimba_Sustain_MF_D6_RR1.opus
</region>

<region>
hivel=95
key=D5
lovel=64
offset=7648
sample=Marimba_Sustain_MF_D5_RR1.opus
</region>

<region>
hivel=95
key=D4
lovel=64
offset=10991
sample=Marimba_Sustain_MF_D4_RR1.opus
</region>

<region>
hivel=95
key=D3
lovel=64
sample=Marimba_Sustain_MF_D3_RR1.opus
</region>

<region>
hivel=95
key=D2
lovel=64
offset=12432
sample=Marimba_Sustain_MF_D2_RR1.opus
</region>

<region>
hivel=95
key=D#6
lovel=64
offset=10459
sample=Marimba_Sustain_MF_D#6_RR1.opus
</region>

<region>
hivel=95
key=D#5
lovel=64
offset=13004
sample=Marimba_Sustain_MF_D#5_RR1.opus
</region>

<region>
hivel=95
key=D#4
lovel=64
offset=5293
sample=Marimba_Sustain_MF_D#4_RR1.opus
</region>

<region>
hivel=95
key=D#3
lovel=64
sample=Marimba_Sustain_MF_D#3_RR1.opus
</region>

<region>
hivel=95
key=D#2
lovel=64
offset=13025
sample=Marimba_Sustain_MF_D#2_RR1.opus
</region>

<region>
hivel=95
key=C7
lovel=64
offset=12971
sample=Marimba_Sustain_MF_C7_RR1.opus
</region>

<region>
hivel=95
key=C6
lovel=64
offset=13007
sample=Marimba_Sustain_MF_C6_RR1.opus
</region>

<region>
hivel=95
key=C5
lovel=64
offset=12979
sample=Marimba_Sustain_MF_C5_RR1.opus
</region>

<region>
hivel=95
key=C4
lovel=64
sample=Marimba_Sustain_MF_C4_RR1.opus
</region>

<region>
hivel=95
key=C3
lovel=64
offset=11710
sample=Marimba_Sustain_MF_C3_RR1.opus
</region>

<region>
hivel=95
key=C2
lovel=64
offset=12981
sample=Marimba_Sustain_MF_C2_RR1.opus
</region>

<region>
hivel=95
key=C#6
lovel=64
offset=10436
sample=Marimba_Sustain_MF_C#6_RR1.opus
</region>

<region>
hivel=95
key=C#5
lovel=64
offset=12265
sample=Marimba_Sustain_MF_C#5_RR1.opus
</region>

<region>
hivel=95
key=C#4
lovel=64
sample=Marimba_Sustain_MF_C#4_RR1.opus
</region>

<region>
hivel=95
key=C#3
lovel=64
sample=Marimba_Sustain_MF_C#3_RR1.opus
</region>

<region>
hivel=95
key=C#2
lovel=64
offset=12983
sample=Marimba_Sustain_MF_C#2_RR1.opus
</region>

<region>
hivel=95
key=B6
lovel=64
offset=13000
sample=Marimba_Sustain_MF_B6_RR1.opus
</region>

<region>
hivel=95
key=B5
lovel=64
offset=12631
sample=Marimba_Sustain_MF_B5_RR1.opus
</region>

<region>
hivel=95
key=B4
lovel=64
sample=Marimba_Sustain_MF_B4_RR1.opus
</region>

<region>
hivel=95
key=B3
lovel=64
sample=Marimba_Sustain_MF_B3_RR1.opus
</region>

<region>
hivel=95
key=B2
lovel=64
offset=12734
sample=Marimba_Sustain_MF_B2_RR1.opus
</region>

<region>
hivel=95
key=A6
lovel=64
offset=12986
sample=Marimba_Sustain_MF_A6_RR1.opus
</region>

<region>
hivel=95
key=A5
lovel=64
offset=8834
sample=Marimba_Sustain_MF_A5_RR1.opus
</region>

<region>
hivel=95
key=A4
lovel=64
offset=4791
sample=Marimba_Sustain_MF_A4_RR1.opus
</region>

<region>
hivel=95
key=A3
lovel=64
sample=Marimba_Sustain_MF_A3_RR1.opus
</region>

<region>
hivel=95
key=A2
lovel=64
offset=12997
sample=Marimba_Sustain_MF_A2_RR1.opus
</region>

<region>
hivel=95
key=A#6
lovel=64
offset=12969
sample=Marimba_Sustain_MF_A#6_RR1.opus
</region>

<region>
hivel=95
key=A#5
lovel=64
offset=11615
sample=Marimba_Sustain_MF_A#5_RR1.opus
</region>

<region>
hivel=95
key=A#4
lovel=64
offset=9779
sample=Marimba_Sustain_MF_A#4_RR1.opus
</region>

<region>
hivel=95
key=A#3
lovel=64
sample=Marimba_Sustain_MF_A#3_RR1.opus
</region>

<region>
hivel=95
key=A#2
lovel=64
offset=9991
sample=Marimba_Sustain_MF_A#2_RR1.opus
</region>

<region>
hivel=127
key=G6
lovel=96
offset=12991
sample=Marimba_Sustain_FF_G6_RR1.opus
</region>

<region>
hivel=127
key=G5
lovel=96
sample=Marimba_Sustain_FF_G5_RR1.opus
</region>

<region>
hivel=127
key=G4
lovel=96
sample=Marimba_Sustain_FF_G4_RR1.opus
</region>

<region>
hivel=127
key=G3
lovel=96
sample=Marimba_Sustain_FF_G3_RR1.opus
</region>

<region>
hivel=127
key=G2
lovel=96
sample=Marimba_Sustain_FF_G2_RR1.opus
</region>

<region>
hivel=127
key=G#6
lovel=96
offset=12082
sample=Marimba_Sustain_FF_G#6_RR1.opus
</region>

<region>
hivel=127
key=G#5
lovel=96
sample=Marimba_Sustain_FF_G#5_RR1.opus
</region>

<region>
hivel=127
key=G#4
lovel=96
sample=Marimba_Sustain_FF_G#4_RR1.opus
</region>

<region>
hivel=127
key=G#3
lovel=96
sample=Marimba_Sustain_FF_G#3_RR1.opus
</region>

<region>
hivel=127
key=G#2
lovel=96
sample=Marimba_Sustain_FF_G#2_RR1.opus
</region>

<region>
hivel=127
key=F6
lovel=96
offset=10509
sample=Marimba_Sustain_FF_F6_RR1.opus
</region>

<region>
hivel=127
key=F5
lovel=96
sample=Marimba_Sustain_FF_F5_RR1.opus
</region>

<region>
hivel=127
key=F4
lovel=96
sample=Marimba_Sustain_FF_F4_RR1.opus
</region>

<region>
hivel=127
key=F3
lovel=96
sample=Marimba_Sustain_FF_F3_RR1.opus
</region>

<region>
hivel=127
key=F2
lovel=96
offset=1214
sample=Marimba_Sustain_FF_F2_RR1.opus
</region>

<region>
hivel=127
key=F#6
lovel=96
offset=12672
sample=Marimba_Sustain_FF_F#6_RR1.opus
</region>

<region>
hivel=127
key=F#5
lovel=96
sample=Marimba_Sustain_FF_F#5_RR1.opus
</region>

<region>
hivel=127
key=F#4
lovel=96
sample=Marimba_Sustain_FF_F#4_RR1.opus
</region>

<region>
hivel=127
key=F#3
lovel=96
sample=Marimba_Sustain_FF_F#3_RR1.opus
</region>

<region>
hivel=127
key=F#2
lovel=96
offset=1154
sample=Marimba_Sustain_FF_F#2_RR1.opus
</region>

<region>
hivel=127
key=E6
lovel=96
offset=11196
sample=Marimba_Sustain_FF_E6_RR1.opus
</region>

<region>
hivel=127
key=E5
lovel=96
sample=Marimba_Sustain_FF_E5_RR1.opus
</region>

<region>
hivel=127
key=E4
lovel=96
sample=Marimba_Sustain_FF_E4_RR1.opus
</region>

<region>
hivel=127
key=E3
lovel=96
sample=Marimba_Sustain_FF_E3_RR1.opus
</region>

<region>
hivel=127
key=E2
lovel=96
offset=12677
sample=Marimba_Sustain_FF_E2_RR1.opus
</region>

<region>
hivel=127
key=D6
lovel=96
offset=12976
sample=Marimba_Sustain_FF_D6_RR1.opus
</region>

<region>
hivel=127
key=D5
lovel=96
sample=Marimba_Sustain_FF_D5_RR1.opus
</region>

<region>
hivel=127
key=D4
lovel=96
sample=Marimba_Sustain_FF_D4_RR1.opus
</region>

<region>
hivel=127
key=D3
lovel=96
sample=Marimba_Sustain_FF_D3_RR1.opus
</region>

<region>
hivel=127
key=D2
lovel=96
offset=12991
sample=Marimba_Sustain_FF_D2_RR1.opus
</region>

<region>
hivel=127
key=D#6
lovel=96
offset=11879
sample=Marimba_Sustain_FF_D#6_RR1.opus
</region>

<region>
hivel=127
key=D#5
lovel=96
sample=Marimba_Sustain_FF_D#5_RR1.opus
</region>

<region>
hivel=127
key=D#4
lovel=96
sample=Marimba_Sustain_FF_D#4_RR1.opus
</region>

<region>
hivel=127
key=D#3
lovel=96
sample=Marimba_Sustain_FF_D#3_RR1.opus
</region>

<region>
hivel=127
key=D#2
lovel=96
offset=9964
sample=Marimba_Sustain_FF_D#2_RR1.opus
</region>

<region>
hivel=127
key=C7
lovel=96
offset=12976
sample=Marimba_Sustain_FF_C7_RR1.opus
</region>

<region>
hivel=127
key=C6
lovel=96
offset=12962
sample=Marimba_Sustain_FF_C6_RR1.opus
</region>

<region>
hivel=127
key=C5
lovel=96
sample=Marimba_Sustain_FF_C5_RR1.opus
</region>

<region>
hivel=127
key=C4
lovel=96
sample=Marimba_Sustain_FF_C4_RR1.opus
</region>

<region>
hivel=127
key=C3
lovel=96
sample=Marimba_Sustain_FF_C3_RR1.opus
</region>

<region>
hivel=127
key=C2
lovel=96
offset=11005
sample=Marimba_Sustain_FF_C2_RR1.opus
</region>

<region>
hivel=127
key=C#6
lovel=96
sample=Marimba_Sustain_FF_C#6_RR1.opus
</region>

<region>
hivel=127
key=C#5
lovel=96
sample=Marimba_Sustain_FF_C#5_RR1.opus
</region>

<region>
hivel=127
key=C#4
lovel=96
sample=Marimba_Sustain_FF_C#4_RR1.opus
</region>

<region>
hivel=127
key=C#3
lovel=96
sample=Marimba_Sustain_FF_C#3_RR1.opus
</region>

<region>
hivel=127
key=C#2
lovel=96
offset=13006
sample=Marimba_Sustain_FF_C#2_RR1.opus
</region>

<region>
hivel=127
key=B6
lovel=96
offset=12991
sample=Marimba_Sustain_FF_B6_RR1.opus
</region>

<region>
hivel=127
key=B5
lovel=96
offset=11872
sample=Marimba_Sustain_FF_B5_RR1.opus
</region>

<region>
hivel=127
key=B4
lovel=96
sample=Marimba_Sustain_FF_B4_RR1.opus
</region>

<region>
hivel=127
key=B3
lovel=96
sample=Marimba_Sustain_FF_B3_RR1.opus
</region>

<region>
hivel=127
key=B2
lovel=96
sample=Marimba_Sustain_FF_B2_RR1.opus
</region>

<region>
hivel=127
key=A6
lovel=96
offset=12964
sample=Marimba_Sustain_FF_A6_RR1.opus
</region>

<region>
hivel=127
key=A5
lovel=96
sample=Marimba_Sustain_FF_A5_RR1.opus
</region>

<region>
hivel=127
key=A4
lovel=96
sample=Marimba_Sustain_FF_A4_RR1.opus
</region>

<region>
hivel=127
key=A3
lovel=96
sample=Marimba_Sustain_FF_A3_RR1.opus
</region>

<region>
hivel=127
key=A2
lovel=96
sample=Marimba_Sustain_FF_A2_RR1.opus
</region>

<region>
hivel=127
key=A#6
lovel=96
offset=13001
sample=Marimba_Sustain_FF_A#6_RR1.opus
</region>

<region>
hivel=127
key=A#5
lovel=96
offset=7377
sample=Marimba_Sustain_FF_A#5_RR1.opus
</region>

<region>
hivel=127
key=A#4
lovel=96
sample=Marimba_Sustain_FF_A#4_RR1.opus
</region>

<region>
hivel=127
key=A#3
lovel=96
sample=Marimba_Sustain_FF_A#3_RR1.opus
</region>

<region>
hivel=127
key=A#2
lovel=96
sample=Marimba_Sustain_FF_A#2_RR1.opus
</region>
</group>

<group>
group_label=RR2
seq_length=3
seq_position=2

<region>
hivel=31
key=G6
lovel=0
offset=13923
sample=Marimba_Sustain_PP_G6_RR2.opus
volume=24
</region>

<region>
hivel=31
key=G5
lovel=0
offset=14073
sample=Marimba_Sustain_PP_G5_RR2.opus
volume=24
</region>

<region>
hivel=31
key=G4
lovel=0
offset=13898
sample=Marimba_Sustain_PP_G4_RR2.opus
volume=24
</region>

<region>
hivel=31
key=G3
lovel=0
offset=15182
sample=Marimba_Sustain_PP_G3_RR2.opus
volume=24
</region>

<region>
hivel=31
key=G2
lovel=0
offset=18097
sample=Marimba_Sustain_PP_G2_RR2.opus
volume=24
</region>

<region>
hivel=31
key=G#6
lovel=0
offset=14620
sample=Marimba_Sustain_PP_G#6_RR2.opus
volume=24
</region>

<region>
hivel=31
key=G#5
lovel=0
offset=13686
sample=Marimba_Sustain_PP_G#5_RR2.opus
volume=24
</region>

<region>
hivel=31
key=G#4
lovel=0
offset=13758
sample=Marimba_Sustain_PP_G#4_RR2.opus
volume=24
</region>

<region>
hivel=31
key=G#3
lovel=0
offset=14642
sample=Marimba_Sustain_PP_G#3_RR2.opus
volume=24
</region>

<region>
hivel=31
key=G#2
lovel=0
offset=15838
sample=Marimba_Sustain_PP_G#2_RR2.opus
volume=24
</region>

<region>
hivel=31
key=F6
lovel=0
offset=14759
sample=Marimba_Sustain_PP_F6_RR2.opus
volume=24
</region>

<region>
hivel=31
key=F5
lovel=0
offset=16346
sample=Marimba_Sustain_PP_F5_RR2.opus
volume=24
</region>

<region>
hivel=31
key=F4
lovel=0
offset=15210
sample=Marimba_Sustain_PP_F4_RR2.opus
volume=24
</region>

<region>
hivel=31
key=F3
lovel=0
offset=14295
sample=Marimba_Sustain_PP_F3_RR2.opus
volume=24
</region>

<region>
hivel=31
key=F2
lovel=0
offset=16510
sample=Marimba_Sustain_PP_F2_RR2.opus
volume=24
</region>

<region>
hivel=31
key=F#6
lovel=0
offset=17401
sample=Marimba_Sustain_PP_F#6_RR2.opus
volume=24
</region>

<region>
hivel=31
key=F#5
lovel=0
offset=18279
sample=Marimba_Sustain_PP_F#5_RR2.opus
volume=24
</region>

<region>
hivel=31
key=F#4
lovel=0
offset=13839
sample=Marimba_Sustain_PP_F#4_RR2.opus
volume=24
</region>

<region>
hivel=31
key=F#3
lovel=0
offset=15047
sample=Marimba_Sustain_PP_F#3_RR2.opus
volume=24
</region>

<region>
hivel=31
key=F#2
lovel=0
offset=17081
sample=Marimba_Sustain_PP_F#2_RR2.opus
volume=24
</region>

<region>
hivel=31
key=E6
lovel=0
offset=15701
sample=Marimba_Sustain_PP_E6_RR2.opus
volume=24
</region>

<region>
hivel=31
key=E5
lovel=0
offset=16833
sample=Marimba_Sustain_PP_E5_RR2.opus
volume=24
</region>

<region>
hivel=31
key=E4
lovel=0
offset=13862
sample=Marimba_Sustain_PP_E4_RR2.opus
volume=24
</region>

<region>
hivel=31
key=E3
lovel=0
offset=14427
sample=Marimba_Sustain_PP_E3_RR2.opus
volume=24
</region>

<region>
hivel=31
key=E2
lovel=0
offset=17130
sample=Marimba_Sustain_PP_E2_RR2.opus
volume=24
</region>

<region>
hivel=31
key=D6
lovel=0
offset=19392
sample=Marimba_Sustain_PP_D6_RR2.opus
volume=24
</region>

<region>
hivel=31
key=D5
lovel=0
offset=13860
sample=Marimba_Sustain_PP_D5_RR2.opus
volume=24
</region>

<region>
hivel=31
key=D4
lovel=0
offset=12412
sample=Marimba_Sustain_PP_D4_RR2.opus
volume=24
</region>

<region>
hivel=31
key=D3
lovel=0
offset=15799
sample=Marimba_Sustain_PP_D3_RR2.opus
volume=24
</region>

<region>
hivel=31
key=D2
lovel=0
offset=12839
sample=Marimba_Sustain_PP_D2_RR2.opus
volume=24
</region>

<region>
hivel=31
key=D#6
lovel=0
offset=19384
sample=Marimba_Sustain_PP_D#6_RR2.opus
volume=24
</region>

<region>
hivel=31
key=D#5
lovel=0
offset=13745
sample=Marimba_Sustain_PP_D#5_RR2.opus
volume=24
</region>

<region>
hivel=31
key=D#4
lovel=0
offset=12790
sample=Marimba_Sustain_PP_D#4_RR2.opus
volume=24
</region>

<region>
hivel=31
key=D#3
lovel=0
offset=15293
sample=Marimba_Sustain_PP_D#3_RR2.opus
volume=24
</region>

<region>
hivel=31
key=D#2
lovel=0
offset=22117
sample=Marimba_Sustain_PP_D#2_RR2.opus
volume=24
</region>

<region>
hivel=31
key=C7
lovel=0
offset=12515
sample=Marimba_Sustain_PP_C7_RR2.opus
volume=24
</region>

<region>
hivel=31
key=C6
lovel=0
offset=13547
sample=Marimba_Sustain_PP_C6_RR2.opus
volume=24
</region>

<region>
hivel=31
key=C5
lovel=0
offset=12347
sample=Marimba_Sustain_PP_C5_RR2.opus
volume=24
</region>

<region>
hivel=31
key=C4
lovel=0
offset=16464
sample=Marimba_Sustain_PP_C4_RR2.opus
volume=24
</region>

<region>
hivel=31
key=C3
lovel=0
offset=16506
sample=Marimba_Sustain_PP_C3_RR2.opus
volume=24
</region>

<region>
hivel=31
key=C2
lovel=0
offset=14177
sample=Marimba_Sustain_PP_C2_RR2.opus
volume=24
</region>

<region>
hivel=31
key=C#6
lovel=0
offset=15289
sample=Marimba_Sustain_PP_C#6_RR2.opus
volume=24
</region>

<region>
hivel=31
key=C#5
lovel=0
offset=13710
sample=Marimba_Sustain_PP_C#5_RR2.opus
volume=24
</region>

<region>
hivel=31
key=C#4
lovel=0
offset=15665
sample=Marimba_Sustain_PP_C#4_RR2.opus
volume=24
</region>

<region>
hivel=31
key=C#3
lovel=0
offset=14371
sample=Marimba_Sustain_PP_C#3_RR2.opus
volume=24
</region>

<region>
hivel=31
key=C#2
lovel=0
offset=22137
sample=Marimba_Sustain_PP_C#2_RR2.opus
volume=24
</region>

<region>
hivel=31
key=B6
lovel=0
offset=12973
sample=Marimba_Sustain_PP_B6_RR2.opus
volume=24
</region>

<region>
hivel=31
key=B5
lovel=0
offset=13494
sample=Marimba_Sustain_PP_B5_RR2.opus
volume=24
</region>

<region>
hivel=31
key=B4
lovel=0
offset=14700
sample=Marimba_Sustain_PP_B4_RR2.opus
volume=24
</region>

<region>
hivel=31
key=B3
lovel=0
offset=14711
sample=Marimba_Sustain_PP_B3_RR2.opus
volume=24
</region>

<region>
hivel=31
key=B2
lovel=0
offset=11206
sample=Marimba_Sustain_PP_B2_RR2.opus
volume=24
</region>

<region>
hivel=31
key=A6
lovel=0
offset=16152
sample=Marimba_Sustain_PP_A6_RR2.opus
volume=24
</region>

<region>
hivel=31
key=A5
lovel=0
offset=15234
sample=Marimba_Sustain_PP_A5_RR2.opus
volume=24
</region>

<region>
hivel=31
key=A4
lovel=0
offset=13859
sample=Marimba_Sustain_PP_A4_RR2.opus
volume=24
</region>

<region>
hivel=31
key=A3
lovel=0
offset=13895
sample=Marimba_Sustain_PP_A3_RR2.opus
volume=24
</region>

<region>
hivel=31
key=A2
lovel=0
offset=14158
sample=Marimba_Sustain_PP_A2_RR2.opus
volume=24
</region>

<region>
hivel=31
key=A#6
lovel=0
offset=16315
sample=Marimba_Sustain_PP_A#6_RR2.opus
volume=24
</region>

<region>
hivel=31
key=A#5
lovel=0
offset=13559
sample=Marimba_Sustain_PP_A#5_RR2.opus
volume=24
</region>

<region>
hivel=31
key=A#4
lovel=0
offset=10565
sample=Marimba_Sustain_PP_A#4_RR2.opus
volume=24
</region>

<region>
hivel=31
key=A#3
lovel=0
offset=14334
sample=Marimba_Sustain_PP_A#3_RR2.opus
volume=24
</region>

<region>
hivel=31
key=A#2
lovel=0
offset=20988
sample=Marimba_Sustain_PP_A#2_RR2.opus
volume=24
</region>

<region>
hivel=63
key=G6
lovel=32
offset=12945
sample=Marimba_Sustain_MP_G6_RR2.opus
</region>

<region>
hivel=63
key=G5
lovel=32
offset=12977
sample=Marimba_Sustain_MP_G5_RR2.opus
</region>

<region>
hivel=63
key=G4
lovel=32
offset=12967
sample=Marimba_Sustain_MP_G4_RR2.opus
</region>

<region>
hivel=63
key=G3
lovel=32
offset=1981
sample=Marimba_Sustain_MP_G3_RR2.opus
</region>

<region>
hivel=63
key=G2
lovel=32
offset=13010
sample=Marimba_Sustain_MP_G2_RR2.opus
</region>

<region>
hivel=63
key=G#6
lovel=32
offset=12966
sample=Marimba_Sustain_MP_G#6_RR2.opus
</region>

<region>
hivel=63
key=G#5
lovel=32
offset=12990
sample=Marimba_Sustain_MP_G#5_RR2.opus
</region>

<region>
hivel=63
key=G#4
lovel=32
offset=13011
sample=Marimba_Sustain_MP_G#4_RR2.opus
</region>

<region>
hivel=63
key=G#3
lovel=32
offset=12982
sample=Marimba_Sustain_MP_G#3_RR2.opus
</region>

<region>
hivel=63
key=G#2
lovel=32
offset=13008
sample=Marimba_Sustain_MP_G#2_RR2.opus
</region>

<region>
hivel=63
key=F6
lovel=32
offset=12998
sample=Marimba_Sustain_MP_F6_RR2.opus
</region>

<region>
hivel=63
key=F5
lovel=32
offset=12986
sample=Marimba_Sustain_MP_F5_RR2.opus
</region>

<region>
hivel=63
key=F4
lovel=32
offset=12990
sample=Marimba_Sustain_MP_F4_RR2.opus
</region>

<region>
hivel=63
key=F3
lovel=32
offset=11131
sample=Marimba_Sustain_MP_F3_RR2.opus
</region>

<region>
hivel=63
key=F2
lovel=32
offset=12991
sample=Marimba_Sustain_MP_F2_RR2.opus
</region>

<region>
hivel=63
key=F#6
lovel=32
offset=12953
sample=Marimba_Sustain_MP_F#6_RR2.opus
</region>

<region>
hivel=63
key=F#5
lovel=32
offset=13001
sample=Marimba_Sustain_MP_F#5_RR2.opus
</region>

<region>
hivel=63
key=F#4
lovel=32
offset=12998
sample=Marimba_Sustain_MP_F#4_RR2.opus
</region>

<region>
hivel=63
key=F#3
lovel=32
offset=12984
sample=Marimba_Sustain_MP_F#3_RR2.opus
</region>

<region>
hivel=63
key=F#2
lovel=32
offset=13020
sample=Marimba_Sustain_MP_F#2_RR2.opus
</region>

<region>
hivel=63
key=E6
lovel=32
offset=12978
sample=Marimba_Sustain_MP_E6_RR2.opus
</region>

<region>
hivel=63
key=E5
lovel=32
offset=12981
sample=Marimba_Sustain_MP_E5_RR2.opus
</region>

<region>
hivel=63
key=E4
lovel=32
offset=13003
sample=Marimba_Sustain_MP_E4_RR2.opus
</region>

<region>
hivel=63
key=E3
lovel=32
offset=12997
sample=Marimba_Sustain_MP_E3_RR2.opus
</region>

<region>
hivel=63
key=E2
lovel=32
offset=13015
sample=Marimba_Sustain_MP_E2_RR2.opus
</region>

<region>
hivel=63
key=D6
lovel=32
offset=12991
sample=Marimba_Sustain_MP_D6_RR2.opus
</region>

<region>
hivel=63
key=D5
lovel=32
offset=12943
sample=Marimba_Sustain_MP_D5_RR2.opus
</region>

<region>
hivel=63
key=D4
lovel=32
offset=12975
sample=Marimba_Sustain_MP_D4_RR2.opus
</region>

<region>
hivel=63
key=D3
lovel=32
offset=10262
sample=Marimba_Sustain_MP_D3_RR2.opus
</region>

<region>
hivel=63
key=D2
lovel=32
offset=13015
sample=Marimba_Sustain_MP_D2_RR2.opus
</region>

<region>
hivel=63
key=D#6
lovel=32
offset=12972
sample=Marimba_Sustain_MP_D#6_RR2.opus
</region>

<region>
hivel=63
key=D#5
lovel=32
offset=12994
sample=Marimba_Sustain_MP_D#5_RR2.opus
</region>

<region>
hivel=63
key=D#4
lovel=32
offset=12971
sample=Marimba_Sustain_MP_D#4_RR2.opus
</region>

<region>
hivel=63
key=D#3
lovel=32
sample=Marimba_Sustain_MP_D#3_RR2.opus
</region>

<region>
hivel=63
key=D#2
lovel=32
offset=12978
sample=Marimba_Sustain_MP_D#2_RR2.opus
</region>

<region>
hivel=63
key=C7
lovel=32
offset=12982
sample=Marimba_Sustain_MP_C7_RR2.opus
</region>

<region>
hivel=63
key=C6
lovel=32
offset=12977
sample=Marimba_Sustain_MP_C6_RR2.opus
</region>

<region>
hivel=63
key=C5
lovel=32
offset=12974
sample=Marimba_Sustain_MP_C5_RR2.opus
</region>

<region>
hivel=63
key=C4
lovel=32
offset=12836
sample=Marimba_Sustain_MP_C4_RR2.opus
</region>

<region>
hivel=63
key=C3
lovel=32
offset=12991
sample=Marimba_Sustain_MP_C3_RR2.opus
</region>

<region>
hivel=63
key=C2
lovel=32
offset=13022
sample=Marimba_Sustain_MP_C2_RR2.opus
</region>

<region>
hivel=63
key=C#6
lovel=32
offset=12960
sample=Marimba_Sustain_MP_C#6_RR2.opus
</region>

<region>
hivel=63
key=C#5
lovel=32
offset=12992
sample=Marimba_Sustain_MP_C#5_RR2.opus
</region>

<region>
hivel=63
key=C#4
lovel=32
sample=Marimba_Sustain_MP_C#4_RR2.opus
</region>

<region>
hivel=63
key=C#3
lovel=32
offset=12970
sample=Marimba_Sustain_MP_C#3_RR2.opus
</region>

<region>
hivel=63
key=C#2
lovel=32
offset=13032
sample=Marimba_Sustain_MP_C#2_RR2.opus
</region>

<region>
hivel=63
key=B6
lovel=32
offset=12814
sample=Marimba_Sustain_MP_B6_RR2.opus
</region>

<region>
hivel=63
key=B5
lovel=32
offset=12998
sample=Marimba_Sustain_MP_B5_RR2.opus
</region>

<region>
hivel=63
key=B4
lovel=32
offset=13012
sample=Marimba_Sustain_MP_B4_RR2.opus
</region>

<region>
hivel=63
key=B3
lovel=32
sample=Marimba_Sustain_MP_B3_RR2.opus
</region>

<region>
hivel=63
key=B2
lovel=32
offset=13001
sample=Marimba_Sustain_MP_B2_RR2.opus
</region>

<region>
hivel=63
key=A6
lovel=32
sample=Marimba_Sustain_MP_A6_RR2.opus
</region>

<region>
hivel=63
key=A5
lovel=32
offset=12984
sample=Marimba_Sustain_MP_A5_RR2.opus
</region>

<region>
hivel=63
key=A4
lovel=32
offset=13026
sample=Marimba_Sustain_MP_A4_RR2.opus
</region>

<region>
hivel=63
key=A3
lovel=32
offset=12308
sample=Marimba_Sustain_MP_A3_RR2.opus
</region>

<region>
hivel=63
key=A2
lovel=32
offset=12986
sample=Marimba_Sustain_MP_A2_RR2.opus
</region>

<region>
hivel=63
key=A#6
lovel=32
offset=13023
sample=Marimba_Sustain_MP_A#6_RR2.opus
</region>

<region>
hivel=63
key=A#5
lovel=32
offset=13002
sample=Marimba_Sustain_MP_A#5_RR2.opus
</region>

<region>
hivel=63
key=A#4
lovel=32
offset=13009
sample=Marimba_Sustain_MP_A#4_RR2.opus
</region>

<region>
hivel=63
key=A#3
lovel=32
offset=11784
sample=Marimba_Sustain_MP_A#3_RR2.opus
</region>

<region>
hivel=63
key=A#2
lovel=32
offset=13020
sample=Marimba_Sustain_MP_A#2_RR2.opus
</region>

<region>
hivel=95
key=G6
lovel=64
offset=13004
sample=Marimba_Sustain_MF_G6_RR2.opus
</region>

<region>
hivel=95
key=G5
lovel=64
offset=9020
sample=Marimba_Sustain_MF_G5_RR2.opus
</region>

<region>
hivel=95
key=G4
lovel=64
sample=Marimba_Sustain_MF_G4_RR2.opus
</region>

<region>
hivel=95
key=G3
lovel=64
sample=Marimba_Sustain_MF_G3_RR2.opus
</region>

<region>
hivel=95
key=G2
lovel=64
offset=13028
sample=Marimba_Sustain_MF_G2_RR2.opus
</region>

<region>
hivel=95
key=G#6
lovel=64
offset=13007
sample=Marimba_Sustain_MF_G#6_RR2.opus
</region>

<region>
hivel=95
key=G#5
lovel=64
sample=Marimba_Sustain_MF_G#5_RR2.opus
</region>

<region>
hivel=95
key=G#4
lovel=64
sample=Marimba_Sustain_MF_G#4_RR2.opus
</region>

<region>
hivel=95
key=G#3
lovel=64
sample=Marimba_Sustain_MF_G#3_RR2.opus
</region>

<region>
hivel=95
key=G#2
lovel=64
offset=12982
sample=Marimba_Sustain_MF_G#2_RR2.opus
</region>

<region>
hivel=95
key=F6
lovel=64
offset=12959
sample=Marimba_Sustain_MF_F6_RR2.opus
</region>

<region>
hivel=95
key=F5
lovel=64
offset=13000
sample=Marimba_Sustain_MF_F5_RR2.opus
</region>

<region>
hivel=95
key=F4
lovel=64
sample=Marimba_Sustain_MF_F4_RR2.opus
</region>

<region>
hivel=95
key=F3
lovel=64
sample=Marimba_Sustain_MF_F3_RR2.opus
</region>

<region>
hivel=95
key=F2
lovel=64
offset=12980
sample=Marimba_Sustain_MF_F2_RR2.opus
</region>

<region>
hivel=95
key=F#6
lovel=64
offset=12998
sample=Marimba_Sustain_MF_F#6_RR2.opus
</region>

<region>
hivel=95
key=F#5
lovel=64
sample=Marimba_Sustain_MF_F#5_RR2.opus
</region>

<region>
hivel=95
key=F#4
lovel=64
offset=12991
sample=Marimba_Sustain_MF_F#4_RR2.opus
</region>

<region>
hivel=95
key=F#3
lovel=64
sample=Marimba_Sustain_MF_F#3_RR2.opus
</region>

<region>
hivel=95
key=F#2
lovel=64
offset=12989
sample=Marimba_Sustain_MF_F#2_RR2.opus
</region>

<region>
hivel=95
key=E6
lovel=64
offset=12975
sample=Marimba_Sustain_MF_E6_RR2.opus
</region>

<region>
hivel=95
key=E5
lovel=64
offset=12998
sample=Marimba_Sustain_MF_E5_RR2.opus
</region>

<region>
hivel=95
key=E4
lovel=64
offset=9669
sample=Marimba_Sustain_MF_E4_RR2.opus
</region>

<region>
hivel=95
key=E3
lovel=64
offset=7339
sample=Marimba_Sustain_MF_E3_RR2.opus
</region>

<region>
hivel=95
key=E2
lovel=64
offset=13008
sample=Marimba_Sustain_MF_E2_RR2.opus
</region>

<region>
hivel=95
key=D6
lovel=64
offset=12973
sample=Marimba_Sustain_MF_D6_RR2.opus
</region>

<region>
hivel=95
key=D5
lovel=64
offset=12217
sample=Marimba_Sustain_MF_D5_RR2.opus
</region>

<region>
hivel=95
key=D4
lovel=64
offset=13001
sample=Marimba_Sustain_MF_D4_RR2.opus
</region>

<region>
hivel=95
key=D3
lovel=64
sample=Marimba_Sustain_MF_D3_RR2.opus
</region>

<region>
hivel=95
key=D2
lovel=64
offset=12967
sample=Marimba_Sustain_MF_D2_RR2.opus
</region>

<region>
hivel=95
key=D#6
lovel=64
offset=12157
sample=Marimba_Sustain_MF_D#6_RR2.opus
</region>

<region>
hivel=95
key=D#5
lovel=64
sample=Marimba_Sustain_MF_D#5_RR2.opus
</region>

<region>
hivel=95
key=D#4
lovel=64
offset=13008
sample=Marimba_Sustain_MF_D#4_RR2.opus
</region>

<region>
hivel=95
key=D#3
lovel=64
sample=Marimba_Sustain_MF_D#3_RR2.opus
</region>

<region>
hivel=95
key=D#2
lovel=64
offset=13018
sample=Marimba_Sustain_MF_D#2_RR2.opus
</region>

<region>
hivel=95
key=C7
lovel=64
offset=12971
sample=Marimba_Sustain_MF_C7_RR2.opus
</region>

<region>
hivel=95
key=C6
lovel=64
offset=2897
sample=Marimba_Sustain_MF_C6_RR2.opus
</region>

<region>
hivel=95
key=C5
lovel=64
offset=12602
sample=Marimba_Sustain_MF_C5_RR2.opus
</region>

<region>
hivel=95
key=C4
lovel=64
sample=Marimba_Sustain_MF_C4_RR2.opus
</region>

<region>
hivel=95
key=C3
lovel=64
offset=1543
sample=Marimba_Sustain_MF_C3_RR2.opus
</region>

<region>
hivel=95
key=C2
lovel=64
offset=12995
sample=Marimba_Sustain_MF_C2_RR2.opus
</region>

<region>
hivel=95
key=C#6
lovel=64
offset=12940
sample=Marimba_Sustain_MF_C#6_RR2.opus
</region>

<region>
hivel=95
key=C#5
lovel=64
offset=12726
sample=Marimba_Sustain_MF_C#5_RR2.opus
</region>

<region>
hivel=95
key=C#4
lovel=64
sample=Marimba_Sustain_MF_C#4_RR2.opus
</region>

<region>
hivel=95
key=C#3
lovel=64
offset=976
sample=Marimba_Sustain_MF_C#3_RR2.opus
</region>

<region>
hivel=95
key=C#2
lovel=64
offset=13002
sample=Marimba_Sustain_MF_C#2_RR2.opus
</region>

<region>
hivel=95
key=B6
lovel=64
offset=12965
sample=Marimba_Sustain_MF_B6_RR2.opus
</region>

<region>
hivel=95
key=B5
lovel=64
sample=Marimba_Sustain_MF_B5_RR2.opus
</region>

<region>
hivel=95
key=B4
lovel=64
offset=147
sample=Marimba_Sustain_MF_B4_RR2.opus
</region>

<region>
hivel=95
key=B3
lovel=64
sample=Marimba_Sustain_MF_B3_RR2.opus
</region>

<region>
hivel=95
key=B2
lovel=64
offset=13004
sample=Marimba_Sustain_MF_B2_RR2.opus
</region>

<region>
hivel=95
key=A6
lovel=64
offset=12968
sample=Marimba_Sustain_MF_A6_RR2.opus
</region>

<region>
hivel=95
key=A5
lovel=64
offset=10220
sample=Marimba_Sustain_MF_A5_RR2.opus
</region>

<region>
hivel=95
key=A4
lovel=64
sample=Marimba_Sustain_MF_A4_RR2.opus
</region>

<region>
hivel=95
key=A3
lovel=64
sample=Marimba_Sustain_MF_A3_RR2.opus
</region>

<region>
hivel=95
key=A2
lovel=64
offset=13011
sample=Marimba_Sustain_MF_A2_RR2.opus
</region>

<region>
hivel=95
key=A#6
lovel=64
offset=12980
sample=Marimba_Sustain_MF_A#6_RR2.opus
</region>

<region>
hivel=95
key=A#5
lovel=64
offset=10183
sample=Marimba_Sustain_MF_A#5_RR2.opus
</region>

<region>
hivel=95
key=A#4
lovel=64
sample=Marimba_Sustain_MF_A#4_RR2.opus
</region>

<region>
hivel=95
key=A#3
lovel=64
sample=Marimba_Sustain_MF_A#3_RR2.opus
</region>

<region>
hivel=95
key=A#2
lovel=64
offset=12988
sample=Marimba_Sustain_MF_A#2_RR2.opus
</region>

<region>
hivel=127
key=G6
lovel=96
offset=12999
sample=Marimba_Sustain_FF_G6_RR2.opus
</region>

<region>
hivel=127
key=G5
lovel=96
sample=Marimba_Sustain_FF_G5_RR2.opus
</region>

<region>
hivel=127
key=G4
lovel=96
sample=Marimba_Sustain_FF_G4_RR2.opus
</region>

<region>
hivel=127
key=G3
lovel=96
sample=Marimba_Sustain_FF_G3_RR2.opus
</region>

<region>
hivel=127
key=G2
lovel=96
sample=Marimba_Sustain_FF_G2_RR2.opus
</region>

<region>
hivel=127
key=G#6
lovel=96
offset=13001
sample=Marimba_Sustain_FF_G#6_RR2.opus
</region>

<region>
hivel=127
key=G#5
lovel=96
sample=Marimba_Sustain_FF_G#5_RR2.opus
</region>

<region>
hivel=127
key=G#4
lovel=96
sample=Marimba_Sustain_FF_G#4_RR2.opus
</region>

<region>
hivel=127
key=G#3
lovel=96
sample=Marimba_Sustain_FF_G#3_RR2.opus
</region>

<region>
hivel=127
key=G#2
lovel=96
sample=Marimba_Sustain_FF_G#2_RR2.opus
</region>

<region>
hivel=127
key=F6
lovel=96
offset=9200
sample=Marimba_Sustain_FF_F6_RR2.opus
</region>

<region>
hivel=127
key=F5
lovel=96
sample=Marimba_Sustain_FF_F5_RR2.opus
</region>

<region>
hivel=127
key=F4
lovel=96
sample=Marimba_Sustain_FF_F4_RR2.opus
</region>

<region>
hivel=127
key=F3
lovel=96
sample=Marimba_Sustain_FF_F3_RR2.opus
</region>

<region>
hivel=127
key=F2
lovel=96
sample=Marimba_Sustain_FF_F2_RR2.opus
</region>

<region>
hivel=127
key=F#6
lovel=96
offset=12951
sample=Marimba_Sustain_FF_F#6_RR2.opus
</region>

<region>
hivel=127
key=F#5
lovel=96
sample=Marimba_Sustain_FF_F#5_RR2.opus
</region>

<region>
hivel=127
key=F#4
lovel=96
sample=Marimba_Sustain_FF_F#4_RR2.opus
</region>

<region>
hivel=127
key=F#3
lovel=96
sample=Marimba_Sustain_FF_F#3_RR2.opus
</region>

<region>
hivel=127
key=F#2
lovel=96
offset=6258
sample=Marimba_Sustain_FF_F#2_RR2.opus
</region>

<region>
hivel=127
key=E6
lovel=96
offset=12973
sample=Marimba_Sustain_FF_E6_RR2.opus
</region>

<region>
hivel=127
key=E5
lovel=96
sample=Marimba_Sustain_FF_E5_RR2.opus
</region>

<region>
hivel=127
key=E4
lovel=96
sample=Marimba_Sustain_FF_E4_RR2.opus
</region>

<region>
hivel=127
key=E3
lovel=96
sample=Marimba_Sustain_FF_E3_RR2.opus
</region>

<region>
hivel=127
key=E2
lovel=96
offset=10425
sample=Marimba_Sustain_FF_E2_RR2.opus
</region>

<region>
hivel=127
key=D6
lovel=96
offset=7645
sample=Marimba_Sustain_FF_D6_RR2.opus
</region>

<region>
hivel=127
key=D5
lovel=96
sample=Marimba_Sustain_FF_D5_RR2.opus
</region>

<region>
hivel=127
key=D4
lovel=96
sample=Marimba_Sustain_FF_D4_RR2.opus
</region>

<region>
hivel=127
key=D3
lovel=96
sample=Marimba_Sustain_FF_D3_RR2.opus
</region>

<region>
hivel=127
key=D2
lovel=96
offset=10723
sample=Marimba_Sustain_FF_D2_RR2.opus
</region>

<region>
hivel=127
key=D#6
lovel=96
offset=12961
sample=Marimba_Sustain_FF_D#6_RR2.opus
</region>

<region>
hivel=127
key=D#5
lovel=96
sample=Marimba_Sustain_FF_D#5_RR2.opus
</region>

<region>
hivel=127
key=D#4
lovel=96
sample=Marimba_Sustain_FF_D#4_RR2.opus
</region>

<region>
hivel=127
key=D#3
lovel=96
sample=Marimba_Sustain_FF_D#3_RR2.opus
</region>

<region>
hivel=127
key=D#2
lovel=96
offset=13574
sample=Marimba_Sustain_FF_D#2_RR2.opus
</region>

<region>
hivel=127
key=C7
lovel=96
offset=12973
sample=Marimba_Sustain_FF_C7_RR2.opus
</region>

<region>
hivel=127
key=C6
lovel=96
offset=4817
sample=Marimba_Sustain_FF_C6_RR2.opus
</region>

<region>
hivel=127
key=C5
lovel=96
sample=Marimba_Sustain_FF_C5_RR2.opus
</region>

<region>
hivel=127
key=C4
lovel=96
sample=Marimba_Sustain_FF_C4_RR2.opus
</region>

<region>
hivel=127
key=C3
lovel=96
sample=Marimba_Sustain_FF_C3_RR2.opus
</region>

<region>
hivel=127
key=C2
lovel=96
offset=12703
sample=Marimba_Sustain_FF_C2_RR2.opus
</region>

<region>
hivel=127
key=C#6
lovel=96
sample=Marimba_Sustain_FF_C#6_RR2.opus
</region>

<region>
hivel=127
key=C#5
lovel=96
sample=Marimba_Sustain_FF_C#5_RR2.opus
</region>

<region>
hivel=127
key=C#4
lovel=96
sample=Marimba_Sustain_FF_C#4_RR2.opus
</region>

<region>
hivel=127
key=C#3
lovel=96
sample=Marimba_Sustain_FF_C#3_RR2.opus
</region>

<region>
hivel=127
key=C#2
lovel=96
offset=13012
sample=Marimba_Sustain_FF_C#2_RR2.opus
</region>

<region>
hivel=127
key=B6
lovel=96
offset=13011
sample=Marimba_Sustain_FF_B6_RR2.opus
</region>

<region>
hivel=127
key=B5
lovel=96
sample=Marimba_Sustain_FF_B5_RR2.opus
</region>

<region>
hivel=127
key=B4
lovel=96
sample=Marimba_Sustain_FF_B4_RR2.opus
</region>

<region>
hivel=127
key=B3
lovel=96
sample=Marimba_Sustain_FF_B3_RR2.opus
</region>

<region>
hivel=127
key=B2
lovel=96
sample=Marimba_Sustain_FF_B2_RR2.opus
</region>

<region>
hivel=127
key=A6
lovel=96
offset=12983
sample=Marimba_Sustain_FF_A6_RR2.opus
</region>

<region>
hivel=127
key=A5
lovel=96
sample=Marimba_Sustain_FF_A5_RR2.opus
</region>

<region>
hivel=127
key=A4
lovel=96
sample=Marimba_Sustain_FF_A4_RR2.opus
</region>

<region>
hivel=127
key=A3
lovel=96
sample=Marimba_Sustain_FF_A3_RR2.opus
</region>

<region>
hivel=127
key=A2
lovel=96
sample=Marimba_Sustain_FF_A2_RR2.opus
</region>

<region>
hivel=127
key=A#6
lovel=96
offset=12980
sample=Marimba_Sustain_FF_A#6_RR2.opus
</region>

<region>
hivel=127
key=A#5
lovel=96
offset=3776
sample=Marimba_Sustain_FF_A#5_RR2.opus
</region>

<region>
hivel=127
key=A#4
lovel=96
sample=Marimba_Sustain_FF_A#4_RR2.opus
</region>

<region>
hivel=127
key=A#3
lovel=96
sample=Marimba_Sustain_FF_A#3_RR2.opus
</region>

<region>
hivel=127
key=A#2
lovel=96
sample=Marimba_Sustain_FF_A#2_RR2.opus
</region>
</group>

<group>
group_label=RR3
seq_length=3
seq_position=3

<region>
hivel=31
key=G6
lovel=0
offset=9674
sample=Marimba_Sustain_PP_G6_RR3.opus
volume=24
</region>

<region>
hivel=31
key=G5
lovel=0
offset=15533
sample=Marimba_Sustain_PP_G5_RR3.opus
volume=24
</region>

<region>
hivel=31
key=G4
lovel=0
offset=13958
sample=Marimba_Sustain_PP_G4_RR3.opus
volume=24
</region>

<region>
hivel=31
key=G3
lovel=0
offset=15900
sample=Marimba_Sustain_PP_G3_RR3.opus
volume=24
</region>

<region>
hivel=31
key=G2
lovel=0
offset=17193
sample=Marimba_Sustain_PP_G2_RR3.opus
volume=24
</region>

<region>
hivel=31
key=G#6
lovel=0
offset=14767
sample=Marimba_Sustain_PP_G#6_RR3.opus
volume=24
</region>

<region>
hivel=31
key=G#5
lovel=0
offset=15253
sample=Marimba_Sustain_PP_G#5_RR3.opus
volume=24
</region>

<region>
hivel=31
key=G#4
lovel=0
offset=13760
sample=Marimba_Sustain_PP_G#4_RR3.opus
volume=24
</region>

<region>
hivel=31
key=G#3
lovel=0
offset=14625
sample=Marimba_Sustain_PP_G#3_RR3.opus
volume=24
</region>

<region>
hivel=31
key=G#2
lovel=0
offset=8744
sample=Marimba_Sustain_PP_G#2_RR3.opus
volume=24
</region>

<region>
hivel=31
key=F6
lovel=0
offset=16997
sample=Marimba_Sustain_PP_F6_RR3.opus
volume=24
</region>

<region>
hivel=31
key=F5
lovel=0
offset=17594
sample=Marimba_Sustain_PP_F5_RR3.opus
volume=24
</region>

<region>
hivel=31
key=F4
lovel=0
offset=18398
sample=Marimba_Sustain_PP_F4_RR3.opus
volume=24
</region>

<region>
hivel=31
key=F3
lovel=0
offset=14296
sample=Marimba_Sustain_PP_F3_RR3.opus
volume=24
</region>

<region>
hivel=31
key=F2
lovel=0
offset=18290
sample=Marimba_Sustain_PP_F2_RR3.opus
volume=24
</region>

<region>
hivel=31
key=F#6
lovel=0
offset=17996
sample=Marimba_Sustain_PP_F#6_RR3.opus
volume=24
</region>

<region>
hivel=31
key=F#5
lovel=0
offset=13558
sample=Marimba_Sustain_PP_F#5_RR3.opus
volume=24
</region>

<region>
hivel=31
key=F#4
lovel=0
offset=13833
sample=Marimba_Sustain_PP_F#4_RR3.opus
volume=24
</region>

<region>
hivel=31
key=F#3
lovel=0
offset=14784
sample=Marimba_Sustain_PP_F#3_RR3.opus
volume=24
</region>

<region>
hivel=31
key=F#2
lovel=0
offset=14354
sample=Marimba_Sustain_PP_F#2_RR3.opus
volume=24
</region>

<region>
hivel=31
key=E6
lovel=0
offset=16614
sample=Marimba_Sustain_PP_E6_RR3.opus
volume=24
</region>

<region>
hivel=31
key=E5
lovel=0
offset=13604
sample=Marimba_Sustain_PP_E5_RR3.opus
volume=24
</region>

<region>
hivel=31
key=E4
lovel=0
offset=13969
sample=Marimba_Sustain_PP_E4_RR3.opus
volume=24
</region>

<region>
hivel=31
key=E3
lovel=0
offset=14038
sample=Marimba_Sustain_PP_E3_RR3.opus
volume=24
</region>

<region>
hivel=31
key=E2
lovel=0
offset=15030
sample=Marimba_Sustain_PP_E2_RR3.opus
volume=24
</region>

<region>
hivel=31
key=D6
lovel=0
offset=13521
sample=Marimba_Sustain_PP_D6_RR3.opus
volume=24
</region>

<region>
hivel=31
key=D5
lovel=0
offset=13913
sample=Marimba_Sustain_PP_D5_RR3.opus
volume=24
</region>

<region>
hivel=31
key=D4
lovel=0
offset=11990
sample=Marimba_Sustain_PP_D4_RR3.opus
volume=24
</region>

<region>
hivel=31
key=D3
lovel=0
offset=15778
sample=Marimba_Sustain_PP_D3_RR3.opus
volume=24
</region>

<region>
hivel=31
key=D2
lovel=0
offset=15596
sample=Marimba_Sustain_PP_D2_RR3.opus
volume=24
</region>

<region>
hivel=31
key=D#6
lovel=0
offset=13506
sample=Marimba_Sustain_PP_D#6_RR3.opus
volume=24
</region>

<region>
hivel=31
key=D#5
lovel=0
offset=13576
sample=Marimba_Sustain_PP_D#5_RR3.opus
volume=24
</region>

<region>
hivel=31
key=D#4
lovel=0
offset=12690
sample=Marimba_Sustain_PP_D#4_RR3.opus
volume=24
</region>

<region>
hivel=31
key=D#3
lovel=0
offset=15163
sample=Marimba_Sustain_PP_D#3_RR3.opus
volume=24
</region>

<region>
hivel=31
key=D#2
lovel=0
offset=17073
sample=Marimba_Sustain_PP_D#2_RR3.opus
volume=24
</region>

<region>
hivel=31
key=C7
lovel=0
offset=14536
sample=Marimba_Sustain_PP_C7_RR3.opus
volume=24
</region>

<region>
hivel=31
key=C6
lovel=0
offset=14473
sample=Marimba_Sustain_PP_C6_RR3.opus
volume=24
</region>

<region>
hivel=31
key=C5
lovel=0
offset=13941
sample=Marimba_Sustain_PP_C5_RR3.opus
volume=24
</region>

<region>
hivel=31
key=C4
lovel=0
offset=16654
sample=Marimba_Sustain_PP_C4_RR3.opus
volume=24
</region>

<region>
hivel=31
key=C3
lovel=0
offset=13536
sample=Marimba_Sustain_PP_C3_RR3.opus
volume=24
</region>

<region>
hivel=31
key=C2
lovel=0
offset=14933
sample=Marimba_Sustain_PP_C2_RR3.opus
volume=24
</region>

<region>
hivel=31
key=C#6
lovel=0
offset=15369
sample=Marimba_Sustain_PP_C#6_RR3.opus
volume=24
</region>

<region>
hivel=31
key=C#5
lovel=0
offset=13896
sample=Marimba_Sustain_PP_C#5_RR3.opus
volume=24
</region>

<region>
hivel=31
key=C#4
lovel=0
offset=15800
sample=Marimba_Sustain_PP_C#4_RR3.opus
volume=24
</region>

<region>
hivel=31
key=C#3
lovel=0
offset=13505
sample=Marimba_Sustain_PP_C#3_RR3.opus
volume=24
</region>

<region>
hivel=31
key=C#2
lovel=0
offset=23842
sample=Marimba_Sustain_PP_C#2_RR3.opus
volume=24
</region>

<region>
hivel=31
key=B6
lovel=0
offset=14578
sample=Marimba_Sustain_PP_B6_RR3.opus
volume=24
</region>

<region>
hivel=31
key=B5
lovel=0
offset=13515
sample=Marimba_Sustain_PP_B5_RR3.opus
volume=24
</region>

<region>
hivel=31
key=B4
lovel=0
offset=15555
sample=Marimba_Sustain_PP_B4_RR3.opus
volume=24
</region>

<region>
hivel=31
key=B3
lovel=0
offset=14684
sample=Marimba_Sustain_PP_B3_RR3.opus
volume=24
</region>

<region>
hivel=31
key=B2
lovel=0
offset=12893
sample=Marimba_Sustain_PP_B2_RR3.opus
volume=24
</region>

<region>
hivel=31
key=A6
lovel=0
offset=15423
sample=Marimba_Sustain_PP_A6_RR3.opus
volume=24
</region>

<region>
hivel=31
key=A5
lovel=0
offset=13510
sample=Marimba_Sustain_PP_A5_RR3.opus
volume=24
</region>

<region>
hivel=31
key=A4
lovel=0
offset=12765
sample=Marimba_Sustain_PP_A4_RR3.opus
volume=24
</region>

<region>
hivel=31
key=A3
lovel=0
offset=13895
sample=Marimba_Sustain_PP_A3_RR3.opus
volume=24
</region>

<region>
hivel=31
key=A2
lovel=0
offset=17861
sample=Marimba_Sustain_PP_A2_RR3.opus
volume=24
</region>

<region>
hivel=31
key=A#6
lovel=0
offset=14413
sample=Marimba_Sustain_PP_A#6_RR3.opus
volume=24
</region>

<region>
hivel=31
key=A#5
lovel=0
offset=13546
sample=Marimba_Sustain_PP_A#5_RR3.opus
volume=24
</region>

<region>
hivel=31
key=A#4
lovel=0
offset=11304
sample=Marimba_Sustain_PP_A#4_RR3.opus
volume=24
</region>

<region>
hivel=31
key=A#3
lovel=0
offset=13862
sample=Marimba_Sustain_PP_A#3_RR3.opus
volume=24
</region>

<region>
hivel=31
key=A#2
lovel=0
offset=19450
sample=Marimba_Sustain_PP_A#2_RR3.opus
volume=24
</region>

<region>
hivel=63
key=G6
lovel=32
offset=5951
sample=Marimba_Sustain_MP_G6_RR3.opus
</region>

<region>
hivel=63
key=G5
lovel=32
offset=13023
sample=Marimba_Sustain_MP_G5_RR3.opus
</region>

<region>
hivel=63
key=G4
lovel=32
offset=12987
sample=Marimba_Sustain_MP_G4_RR3.opus
</region>

<region>
hivel=63
key=G3
lovel=32
offset=792
sample=Marimba_Sustain_MP_G3_RR3.opus
</region>

<region>
hivel=63
key=G2
lovel=32
offset=13018
sample=Marimba_Sustain_MP_G2_RR3.opus
</region>

<region>
hivel=63
key=G#6
lovel=32
offset=12980
sample=Marimba_Sustain_MP_G#6_RR3.opus
</region>

<region>
hivel=63
key=G#5
lovel=32
offset=12981
sample=Marimba_Sustain_MP_G#5_RR3.opus
</region>

<region>
hivel=63
key=G#4
lovel=32
offset=12003
sample=Marimba_Sustain_MP_G#4_RR3.opus
</region>

<region>
hivel=63
key=G#3
lovel=32
offset=11089
sample=Marimba_Sustain_MP_G#3_RR3.opus
</region>

<region>
hivel=63
key=G#2
lovel=32
offset=12980
sample=Marimba_Sustain_MP_G#2_RR3.opus
</region>

<region>
hivel=63
key=F6
lovel=32
offset=12997
sample=Marimba_Sustain_MP_F6_RR3.opus
</region>

<region>
hivel=63
key=F5
lovel=32
offset=12973
sample=Marimba_Sustain_MP_F5_RR3.opus
</region>

<region>
hivel=63
key=F4
lovel=32
offset=6346
sample=Marimba_Sustain_MP_F4_RR3.opus
</region>

<region>
hivel=63
key=F3
lovel=32
offset=11794
sample=Marimba_Sustain_MP_F3_RR3.opus
</region>

<region>
hivel=63
key=F2
lovel=32
offset=13009
sample=Marimba_Sustain_MP_F2_RR3.opus
</region>

<region>
hivel=63
key=F#6
lovel=32
offset=12952
sample=Marimba_Sustain_MP_F#6_RR3.opus
</region>

<region>
hivel=63
key=F#5
lovel=32
offset=12989
sample=Marimba_Sustain_MP_F#5_RR3.opus
</region>

<region>
hivel=63
key=F#4
lovel=32
offset=12992
sample=Marimba_Sustain_MP_F#4_RR3.opus
</region>

<region>
hivel=63
key=F#3
lovel=32
sample=Marimba_Sustain_MP_F#3_RR3.opus
</region>

<region>
hivel=63
key=F#2
lovel=32
offset=13018
sample=Marimba_Sustain_MP_F#2_RR3.opus
</region>

<region>
hivel=63
key=E6
lovel=32
offset=12995
sample=Marimba_Sustain_MP_E6_RR3.opus
</region>

<region>
hivel=63
key=E5
lovel=32
offset=12999
sample=Marimba_Sustain_MP_E5_RR3.opus
</region>

<region>
hivel=63
key=E4
lovel=32
offset=12992
sample=Marimba_Sustain_MP_E4_RR3.opus
</region>

<region>
hivel=63
key=E3
lovel=32
offset=9819
sample=Marimba_Sustain_MP_E3_RR3.opus
</region>

<region>
hivel=63
key=E2
lovel=32
offset=12974
sample=Marimba_Sustain_MP_E2_RR3.opus
</region>

<region>
hivel=63
key=D6
lovel=32
offset=12991
sample=Marimba_Sustain_MP_D6_RR3.opus
</region>

<region>
hivel=63
key=D5
lovel=32
offset=12953
sample=Marimba_Sustain_MP_D5_RR3.opus
</region>

<region>
hivel=63
key=D4
lovel=32
offset=12984
sample=Marimba_Sustain_MP_D4_RR3.opus
</region>

<region>
hivel=63
key=D3
lovel=32
offset=13019
sample=Marimba_Sustain_MP_D3_RR3.opus
</region>

<region>
hivel=63
key=D2
lovel=32
offset=13031
sample=Marimba_Sustain_MP_D2_RR3.opus
</region>

<region>
hivel=63
key=D#6
lovel=32
offset=12979
sample=Marimba_Sustain_MP_D#6_RR3.opus
</region>

<region>
hivel=63
key=D#5
lovel=32
offset=12991
sample=Marimba_Sustain_MP_D#5_RR3.opus
</region>

<region>
hivel=63
key=D#4
lovel=32
offset=12983
sample=Marimba_Sustain_MP_D#4_RR3.opus
</region>

<region>
hivel=63
key=D#3
lovel=32
offset=12978
sample=Marimba_Sustain_MP_D#3_RR3.opus
</region>

<region>
hivel=63
key=D#2
lovel=32
offset=12987
sample=Marimba_Sustain_MP_D#2_RR3.opus
</region>

<region>
hivel=63
key=C7
lovel=32
offset=12980
sample=Marimba_Sustain_MP_C7_RR3.opus
</region>

<region>
hivel=63
key=C6
lovel=32
offset=12959
sample=Marimba_Sustain_MP_C6_RR3.opus
</region>

<region>
hivel=63
key=C5
lovel=32
offset=12981
sample=Marimba_Sustain_MP_C5_RR3.opus
</region>

<region>
hivel=63
key=C4
lovel=32
offset=13019
sample=Marimba_Sustain_MP_C4_RR3.opus
</region>

<region>
hivel=63
key=C3
lovel=32
offset=13013
sample=Marimba_Sustain_MP_C3_RR3.opus
</region>

<region>
hivel=63
key=C2
lovel=32
offset=13027
sample=Marimba_Sustain_MP_C2_RR3.opus
</region>

<region>
hivel=63
key=C#6
lovel=32
offset=13023
sample=Marimba_Sustain_MP_C#6_RR3.opus
</region>

<region>
hivel=63
key=C#5
lovel=32
offset=12983
sample=Marimba_Sustain_MP_C#5_RR3.opus
</region>

<region>
hivel=63
key=C#4
lovel=32
sample=Marimba_Sustain_MP_C#4_RR3.opus
</region>

<region>
hivel=63
key=C#3
lovel=32
offset=12988
sample=Marimba_Sustain_MP_C#3_RR3.opus
</region>

<region>
hivel=63
key=C#2
lovel=32
offset=12998
sample=Marimba_Sustain_MP_C#2_RR3.opus
</region>

<region>
hivel=63
key=B6
lovel=32
offset=12972
sample=Marimba_Sustain_MP_B6_RR3.opus
</region>

<region>
hivel=63
key=B5
lovel=32
offset=13004
sample=Marimba_Sustain_MP_B5_RR3.opus
</region>

<region>
hivel=63
key=B4
lovel=32
offset=12578
sample=Marimba_Sustain_MP_B4_RR3.opus
</region>

<region>
hivel=63
key=B3
lovel=32
offset=11843
sample=Marimba_Sustain_MP_B3_RR3.opus
</region>

<region>
hivel=63
key=B2
lovel=32
offset=12985
sample=Marimba_Sustain_MP_B2_RR3.opus
</region>

<region>
hivel=63
key=A6
lovel=32
offset=12980
sample=Marimba_Sustain_MP_A6_RR3.opus
</region>

<region>
hivel=63
key=A5
lovel=32
offset=13010
sample=Marimba_Sustain_MP_A5_RR3.opus
</region>

<region>
hivel=63
key=A4
lovel=32
offset=12965
sample=Marimba_Sustain_MP_A4_RR3.opus
</region>

<region>
hivel=63
key=A3
lovel=32
offset=13012
sample=Marimba_Sustain_MP_A3_RR3.opus
</region>

<region>
hivel=63
key=A2
lovel=32
offset=13011
sample=Marimba_Sustain_MP_A2_RR3.opus
</region>

<region>
hivel=63
key=A#6
lovel=32
offset=13023
sample=Marimba_Sustain_MP_A#6_RR3.opus
</region>

<region>
hivel=63
key=A#5
lovel=32
offset=13003
sample=Marimba_Sustain_MP_A#5_RR3.opus
</region>

<region>
hivel=63
key=A#4
lovel=32
offset=13006
sample=Marimba_Sustain_MP_A#4_RR3.opus
</region>

<region>
hivel=63
key=A#3
lovel=32
offset=3793
sample=Marimba_Sustain_MP_A#3_RR3.opus
</region>

<region>
hivel=63
key=A#2
lovel=32
offset=10269
sample=Marimba_Sustain_MP_A#2_RR3.opus
</region>

<region>
hivel=95
key=G6
lovel=64
offset=13006
sample=Marimba_Sustain_MF_G6_RR3.opus
</region>

<region>
hivel=95
key=G5
lovel=64
offset=10620
sample=Marimba_Sustain_MF_G5_RR3.opus
</region>

<region>
hivel=95
key=G4
lovel=64
sample=Marimba_Sustain_MF_G4_RR3.opus
</region>

<region>
hivel=95
key=G3
lovel=64
sample=Marimba_Sustain_MF_G3_RR3.opus
</region>

<region>
hivel=95
key=G2
lovel=64
offset=13017
sample=Marimba_Sustain_MF_G2_RR3.opus
</region>

<region>
hivel=95
key=G#6
lovel=64
offset=12803
sample=Marimba_Sustain_MF_G#6_RR3.opus
</region>

<region>
hivel=95
key=G#5
lovel=64
sample=Marimba_Sustain_MF_G#5_RR3.opus
</region>

<region>
hivel=95
key=G#4
lovel=64
sample=Marimba_Sustain_MF_G#4_RR3.opus
</region>

<region>
hivel=95
key=G#3
lovel=64
sample=Marimba_Sustain_MF_G#3_RR3.opus
</region>

<region>
hivel=95
key=G#2
lovel=64
offset=13020
sample=Marimba_Sustain_MF_G#2_RR3.opus
</region>

<region>
hivel=95
key=F6
lovel=64
offset=12988
sample=Marimba_Sustain_MF_F6_RR3.opus
</region>

<region>
hivel=95
key=F5
lovel=64
offset=12967
sample=Marimba_Sustain_MF_F5_RR3.opus
</region>

<region>
hivel=95
key=F4
lovel=64
sample=Marimba_Sustain_MF_F4_RR3.opus
</region>

<region>
hivel=95
key=F3
lovel=64
sample=Marimba_Sustain_MF_F3_RR3.opus
</region>

<region>
hivel=95
key=F2
lovel=64
offset=13003
sample=Marimba_Sustain_MF_F2_RR3.opus
</region>

<region>
hivel=95
key=F#6
lovel=64
offset=12970
sample=Marimba_Sustain_MF_F#6_RR3.opus
</region>

<region>
hivel=95
key=F#5
lovel=64
sample=Marimba_Sustain_MF_F#5_RR3.opus
</region>

<region>
hivel=95
key=F#4
lovel=64
offset=11715
sample=Marimba_Sustain_MF_F#4_RR3.opus
</region>

<region>
hivel=95
key=F#3
lovel=64
sample=Marimba_Sustain_MF_F#3_RR3.opus
</region>

<region>
hivel=95
key=F#2
lovel=64
offset=13008
sample=Marimba_Sustain_MF_F#2_RR3.opus
</region>

<region>
hivel=95
key=E6
lovel=64
offset=12983
sample=Marimba_Sustain_MF_E6_RR3.opus
</region>

<region>
hivel=95
key=E5
lovel=64
offset=12985
sample=Marimba_Sustain_MF_E5_RR3.opus
</region>

<region>
hivel=95
key=E4
lovel=64
sample=Marimba_Sustain_MF_E4_RR3.opus
</region>

<region>
hivel=95
key=E3
lovel=64
offset=12977
sample=Marimba_Sustain_MF_E3_RR3.opus
</region>

<region>
hivel=95
key=E2
lovel=64
offset=12973
sample=Marimba_Sustain_MF_E2_RR3.opus
</region>

<region>
hivel=95
key=D6
lovel=64
offset=12971
sample=Marimba_Sustain_MF_D6_RR3.opus
</region>

<region>
hivel=95
key=D5
lovel=64
offset=13000
sample=Marimba_Sustain_MF_D5_RR3.opus
</region>

<region>
hivel=95
key=D4
lovel=64
offset=9486
sample=Marimba_Sustain_MF_D4_RR3.opus
</region>

<region>
hivel=95
key=D3
lovel=64
sample=Marimba_Sustain_MF_D3_RR3.opus
</region>

<region>
hivel=95
key=D2
lovel=64
offset=12509
sample=Marimba_Sustain_MF_D2_RR3.opus
</region>

<region>
hivel=95
key=D#6
lovel=64
offset=12992
sample=Marimba_Sustain_MF_D#6_RR3.opus
</region>

<region>
hivel=95
key=D#5
lovel=64
offset=12967
sample=Marimba_Sustain_MF_D#5_RR3.opus
</region>

<region>
hivel=95
key=D#4
lovel=64
offset=12970
sample=Marimba_Sustain_MF_D#4_RR3.opus
</region>

<region>
hivel=95
key=D#3
lovel=64
sample=Marimba_Sustain_MF_D#3_RR3.opus
</region>

<region>
hivel=95
key=D#2
lovel=64
offset=12603
sample=Marimba_Sustain_MF_D#2_RR3.opus
</region>

<region>
hivel=95
key=C7
lovel=64
offset=12961
sample=Marimba_Sustain_MF_C7_RR3.opus
</region>

<region>
hivel=95
key=C6
lovel=64
offset=11017
sample=Marimba_Sustain_MF_C6_RR3.opus
</region>

<region>
hivel=95
key=C5
lovel=64
offset=12966
sample=Marimba_Sustain_MF_C5_RR3.opus
</region>

<region>
hivel=95
key=C4
lovel=64
sample=Marimba_Sustain_MF_C4_RR3.opus
</region>

<region>
hivel=95
key=C3
lovel=64
sample=Marimba_Sustain_MF_C3_RR3.opus
</region>

<region>
hivel=95
key=C2
lovel=64
offset=12968
sample=Marimba_Sustain_MF_C2_RR3.opus
</region>

<region>
hivel=95
key=C#6
lovel=64
offset=6279
sample=Marimba_Sustain_MF_C#6_RR3.opus
</region>

<region>
hivel=95
key=C#5
lovel=64
offset=10750
sample=Marimba_Sustain_MF_C#5_RR3.opus
</region>

<region>
hivel=95
key=C#4
lovel=64
sample=Marimba_Sustain_MF_C#4_RR3.opus
</region>

<region>
hivel=95
key=C#3
lovel=64
offset=12987
sample=Marimba_Sustain_MF_C#3_RR3.opus
</region>

<region>
hivel=95
key=C#2
lovel=64
offset=12979
sample=Marimba_Sustain_MF_C#2_RR3.opus
</region>

<region>
hivel=95
key=B6
lovel=64
offset=12998
sample=Marimba_Sustain_MF_B6_RR3.opus
</region>

<region>
hivel=95
key=B5
lovel=64
offset=3397
sample=Marimba_Sustain_MF_B5_RR3.opus
</region>

<region>
hivel=95
key=B4
lovel=64
sample=Marimba_Sustain_MF_B4_RR3.opus
</region>

<region>
hivel=95
key=B3
lovel=64
sample=Marimba_Sustain_MF_B3_RR3.opus
</region>

<region>
hivel=95
key=B2
lovel=64
offset=12979
sample=Marimba_Sustain_MF_B2_RR3.opus
</region>

<region>
hivel=95
key=A6
lovel=64
offset=13010
sample=Marimba_Sustain_MF_A6_RR3.opus
</region>

<region>
hivel=95
key=A5
lovel=64
offset=11047
sample=Marimba_Sustain_MF_A5_RR3.opus
</region>

<region>
hivel=95
key=A4
lovel=64
sample=Marimba_Sustain_MF_A4_RR3.opus
</region>

<region>
hivel=95
key=A3
lovel=64
sample=Marimba_Sustain_MF_A3_RR3.opus
</region>

<region>
hivel=95
key=A2
lovel=64
offset=12976
sample=Marimba_Sustain_MF_A2_RR3.opus
</region>

<region>
hivel=95
key=A#6
lovel=64
offset=12999
sample=Marimba_Sustain_MF_A#6_RR3.opus
</region>

<region>
hivel=95
key=A#5
lovel=64
offset=11884
sample=Marimba_Sustain_MF_A#5_RR3.opus
</region>

<region>
hivel=95
key=A#4
lovel=64
sample=Marimba_Sustain_MF_A#4_RR3.opus
</region>

<region>
hivel=95
key=A#3
lovel=64
sample=Marimba_Sustain_MF_A#3_RR3.opus
</region>

<region>
hivel=95
key=A#2
lovel=64
offset=12512
sample=Marimba_Sustain_MF_A#2_RR3.opus
</region>

<region>
hivel=127
key=G6
lovel=96
sample=Marimba_Sustain_FF_G6_RR3.opus
</region>

<region>
hivel=127
key=G5
lovel=96
sample=Marimba_Sustain_FF_G5_RR3.opus
</region>

<region>
hivel=127
key=G4
lovel=96
sample=Marimba_Sustain_FF_G4_RR3.opus
</region>

<region>
hivel=127
key=G3
lovel=96
sample=Marimba_Sustain_FF_G3_RR3.opus
</region>

<region>
hivel=127
key=G2
lovel=96
sample=Marimba_Sustain_FF_G2_RR3.opus
</region>

<region>
hivel=127
key=G#6
lovel=96
offset=4690
sample=Marimba_Sustain_FF_G#6_RR3.opus
</region>

<region>
hivel=127
key=G#5
lovel=96
sample=Marimba_Sustain_FF_G#5_RR3.opus
</region>

<region>
hivel=127
key=G#4
lovel=96
sample=Marimba_Sustain_FF_G#4_RR3.opus
</region>

<region>
hivel=127
key=G#3
lovel=96
sample=Marimba_Sustain_FF_G#3_RR3.opus
</region>

<region>
hivel=127
key=G#2
lovel=96
sample=Marimba_Sustain_FF_G#2_RR3.opus
</region>

<region>
hivel=127
key=F6
lovel=96
offset=12992
sample=Marimba_Sustain_FF_F6_RR3.opus
</region>

<region>
hivel=127
key=F5
lovel=96
sample=Marimba_Sustain_FF_F5_RR3.opus
</region>

<region>
hivel=127
key=F4
lovel=96
sample=Marimba_Sustain_FF_F4_RR3.opus
</region>

<region>
hivel=127
key=F3
lovel=96
sample=Marimba_Sustain_FF_F3_RR3.opus
</region>

<region>
hivel=127
key=F2
lovel=96
sample=Marimba_Sustain_FF_F2_RR3.opus
</region>

<region>
hivel=127
key=F#6
lovel=96
offset=12957
sample=Marimba_Sustain_FF_F#6_RR3.opus
</region>

<region>
hivel=127
key=F#5
lovel=96
sample=Marimba_Sustain_FF_F#5_RR3.opus
</region>

<region>
hivel=127
key=F#4
lovel=96
sample=Marimba_Sustain_FF_F#4_RR3.opus
</region>

<region>
hivel=127
key=F#3
lovel=96
sample=Marimba_Sustain_FF_F#3_RR3.opus
</region>

<region>
hivel=127
key=F#2
lovel=96
offset=9067
sample=Marimba_Sustain_FF_F#2_RR3.opus
</region>

<region>
hivel=127
key=E6
lovel=96
offset=12945
sample=Marimba_Sustain_FF_E6_RR3.opus
</region>

<region>
hivel=127
key=E5
lovel=96
sample=Marimba_Sustain_FF_E5_RR3.opus
</region>

<region>
hivel=127
key=E4
lovel=96
sample=Marimba_Sustain_FF_E4_RR3.opus
</region>

<region>
hivel=127
key=E3
lovel=96
sample=Marimba_Sustain_FF_E3_RR3.opus
</region>

<region>
hivel=127
key=E2
lovel=96
offset=13006
sample=Marimba_Sustain_FF_E2_RR3.opus
</region>

<region>
hivel=127
key=D6
lovel=96
offset=10917
sample=Marimba_Sustain_FF_D6_RR3.opus
</region>

<region>
hivel=127
key=D5
lovel=96
sample=Marimba_Sustain_FF_D5_RR3.opus
</region>

<region>
hivel=127
key=D4
lovel=96
sample=Marimba_Sustain_FF_D4_RR3.opus
</region>

<region>
hivel=127
key=D3
lovel=96
sample=Marimba_Sustain_FF_D3_RR3.opus
</region>

<region>
hivel=127
key=D2
lovel=96
offset=12993
sample=Marimba_Sustain_FF_D2_RR3.opus
</region>

<region>
hivel=127
key=D#6
lovel=96
offset=12784
sample=Marimba_Sustain_FF_D#6_RR3.opus
</region>

<region>
hivel=127
key=D#5
lovel=96
sample=Marimba_Sustain_FF_D#5_RR3.opus
</region>

<region>
hivel=127
key=D#4
lovel=96
sample=Marimba_Sustain_FF_D#4_RR3.opus
</region>

<region>
hivel=127
key=D#3
lovel=96
sample=Marimba_Sustain_FF_D#3_RR3.opus
</region>

<region>
hivel=127
key=D#2
lovel=96
offset=12306
sample=Marimba_Sustain_FF_D#2_RR3.opus
</region>

<region>
hivel=127
key=C7
lovel=96
offset=12963
sample=Marimba_Sustain_FF_C7_RR3.opus
</region>

<region>
hivel=127
key=C6
lovel=96
sample=Marimba_Sustain_FF_C6_RR3.opus
</region>

<region>
hivel=127
key=C5
lovel=96
sample=Marimba_Sustain_FF_C5_RR3.opus
</region>

<region>
hivel=127
key=C4
lovel=96
sample=Marimba_Sustain_FF_C4_RR3.opus
</region>

<region>
hivel=127
key=C3
lovel=96
sample=Marimba_Sustain_FF_C3_RR3.opus
</region>

<region>
hivel=127
key=C2
lovel=96
offset=11790
sample=Marimba_Sustain_FF_C2_RR3.opus
</region>

<region>
hivel=127
key=C#6
lovel=96
offset=7242
sample=Marimba_Sustain_FF_C#6_RR3.opus
</region>

<region>
hivel=127
key=C#5
lovel=96
sample=Marimba_Sustain_FF_C#5_RR3.opus
</region>

<region>
hivel=127
key=C#4
lovel=96
sample=Marimba_Sustain_FF_C#4_RR3.opus
</region>

<region>
hivel=127
key=C#3
lovel=96
sample=Marimba_Sustain_FF_C#3_RR3.opus
</region>

<region>
hivel=127
key=C#2
lovel=96
offset=12479
sample=Marimba_Sustain_FF_C#2_RR3.opus
</region>

<region>
hivel=127
key=B6
lovel=96
offset=12971
sample=Marimba_Sustain_FF_B6_RR3.opus
</region>

<region>
hivel=127
key=B5
lovel=96
sample=Marimba_Sustain_FF_B5_RR3.opus
</region>

<region>
hivel=127
key=B4
lovel=96
sample=Marimba_Sustain_FF_B4_RR3.opus
</region>

<region>
hivel=127
key=B3
lovel=96
sample=Marimba_Sustain_FF_B3_RR3.opus
</region>

<region>
hivel=127
key=B2
lovel=96
sample=Marimba_Sustain_FF_B2_RR3.opus
</region>

<region>
hivel=127
key=A6
lovel=96
offset=12999
sample=Marimba_Sustain_FF_A6_RR3.opus
</region>

<region>
hivel=127
key=A5
lovel=96
offset=1943
sample=Marimba_Sustain_FF_A5_RR3.opus
</region>

<region>
hivel=127
key=A4
lovel=96
sample=Marimba_Sustain_FF_A4_RR3.opus
</region>

<region>
hivel=127
key=A3
lovel=96
sample=Marimba_Sustain_FF_A3_RR3.opus
</region>

<region>
hivel=127
key=A2
lovel=96
sample=Marimba_Sustain_FF_A2_RR3.opus
</region>

<region>
hivel=127
key=A#6
lovel=96
offset=12994
sample=Marimba_Sustain_FF_A#6_RR3.opus
</region>

<region>
hivel=127
key=A#5
lovel=96
offset=9851
sample=Marimba_Sustain_FF_A#5_RR3.opus
</region>

<region>
hivel=127
key=A#4
lovel=96
sample=Marimba_Sustain_FF_A#4_RR3.opus
</region>

<region>
hivel=127
key=A#3
lovel=96
sample=Marimba_Sustain_FF_A#3_RR3.opus
</region>

<region>
hivel=127
key=A#2
lovel=96
sample=Marimba_Sustain_FF_A#2_RR3.opus
</region>
</group>